# xmcd
#
# Track frame offsets: 
#        150
#        20614
#        44090
#        68211
#        95106
#        122211
#        141538
#        166423
#        190017
#        210225
#        231105
#
# Disc length: 3319 seconds
#
# Revision: 4
# Processed by: cddbd v1.5.2PL0 Copyright (c) Steve Scherf et al.
# Submitted via: ExactAudioCopy v1.0b3
#
DISCID=a30cf50b
DTITLE=Popa Chubby - Brooklyn Basement Blues
DYEAR=1998
DGENRE=Blues Rock
TTITLE0=Shakedown
TTITLE1=If It Feels Like Love
TTITLE2=Rats Get Whacked
TTITLE3=She Said That Evil Was Her Name
TTITLE4=Transformation
TTITLE5=Arlita
TTITLE6=White Devil
TTITLE7=The Wind Cries Mary
TTITLE8=Meat Helmet
TTITLE9=I've Been Loving You Too Long
TTITLE10=You Can't Keep A Brother Down
EXTD=YEAR: 1998
EXTT0=
EXTT1=
EXTT2=
EXTT3=
EXTT4=
EXTT5=
EXTT6=
EXTT7=
EXTT8=
EXTT9=
EXTT10=
PLAYORDER=
